# xmcd
#
# Track frame offsets:
#	150
#	13672
#	27909
#	45898
#	59665
#	74531
#	89503
#	103276
#	125207
#	137743
#	161337
#	180484
#
# Disc length: 2640 seconds
#
# Revision: 5
# Processed by: cddbd v1.5.2PL0 Copyright (c) Steve Scherf et al.
# Submitted via: EasyCDDAExtractor 11.0.3.1
#
DISCID=a80a4e0c
DTITLE=Pirates Of The Mississippi - The Best Of Pirates Of The Mississippi
DYEAR=2006
DGENRE=Country
TTITLE0=Honky Tonk Blues
TTITLE1=Rollin' Home
TTITLE2=Feed Jake
TTITLE3=Speak Of The Devil
TTITLE4=Fighting For You
TTITLE5=Til I'm Holding You Again
TTITLE6=Too Much
TTITLE7=A Street Man Named Desire
TTITLE8=Dream You
TTITLE9=Jolly Roger, Pirates Of The Missisippi
TTITLE10=Dream You (Dance Mix)
TTITLE11=Pop From The Top (Dance Mix)
EXTD=
EXTT0=
EXTT1=
EXTT2=
EXTT3=
EXTT4=
EXTT5=
EXTT6=
EXTT7=
EXTT8=
EXTT9=
EXTT10=
EXTT11=
PLAYORDER=
